<svg xmlns="http://www.w3.org/2000/svg" width="174" height="24" viewBox="0 0 174 24" fill="none">
  <g clip-path="url(#clip0_1512_741)">
    <path d="M74.2922 16.1842C74.2922 13.9263 72.904 12.7958 70.1277 12.7958C69.1905 12.7958 68.4069 12.8968 67.7768 13.1021C67.1499 13.3074 66.5614 13.6484 66.0176 14.1316H62.5856L63.5131 3.18631H76.7934V6.35367H66.7213L66.2991 10.9105C67.0315 10.541 67.7416 10.2821 68.4357 10.1337C69.1298 9.98525 69.9934 9.91263 71.0233 9.91263C73.2942 9.91263 75.0598 10.4684 76.3265 11.58C77.5931 12.6916 78.2264 14.2295 78.2264 16.1905C78.2264 18.3189 77.5387 19.9674 76.1601 21.1358C74.7816 22.3042 72.8177 22.8853 70.2652 22.8853C65.2755 22.8853 62.5376 20.9874 62.0482 17.1916H65.9024C66.1647 18.1168 66.6253 18.78 67.281 19.1779C67.9367 19.5758 68.9123 19.7747 70.2077 19.7747C72.9264 19.7747 74.2858 18.581 74.2858 16.1905L74.2922 16.1842Z" fill="#001C44"/>
    <path d="M128.526 2.54525H132.352L144.308 16.7684V2.54525H148.303V22.38H144.478L132.521 8.12842V22.38H128.526V2.54525Z" fill="#001C44"/>
    <path d="M101.966 12.8495C100.84 11.8863 99.0489 11.2295 96.5924 10.8758L92.5111 10.2631C91.0654 10.0421 90.0578 9.7421 89.4853 9.36C88.9128 8.98105 88.6281 8.4221 88.6281 7.67999C88.6281 6.8842 89.0823 6.27158 89.9938 5.84842C90.9022 5.4221 92.1912 5.21052 93.8641 5.21052C95.3642 5.21052 96.5221 5.42841 97.3377 5.8642C98.1533 6.29999 98.7674 7.02631 99.18 8.04631L103.249 8.06842L103.149 7.54736C102.679 5.63999 101.704 4.24736 100.223 3.36631C98.7418 2.48841 96.65 2.04631 93.9472 2.04631C91.0014 2.04631 88.6888 2.55158 87.0128 3.55894C85.3336 4.56947 84.4956 5.98104 84.4956 7.79367C84.4956 9.49894 85.0969 10.8158 86.2963 11.7505C87.4958 12.6853 89.4661 13.3579 92.204 13.7653L95.7224 14.2926C97.053 14.4789 98.0158 14.7789 98.6075 15.1958C99.1992 15.6126 99.4935 16.1905 99.4935 16.9326C99.4935 17.8231 99.0425 18.5084 98.1437 18.9884C97.2417 19.4716 95.9303 19.7116 94.2031 19.7116C92.3832 19.7116 90.9758 19.4337 89.9843 18.8779C88.9895 18.3221 88.3818 17.4695 88.1547 16.3231H83.9614C84.4316 20.6937 87.8444 22.8789 94.2031 22.8789C97.2417 22.8789 99.5766 22.3579 101.208 21.3095C102.839 20.2642 103.655 18.7768 103.655 16.8505C103.655 15.1484 103.092 13.8126 101.966 12.8495Z" fill="#001C44"/>
    <path d="M169.688 15.4895C169.369 16.8411 168.713 17.8358 167.718 18.4768C166.723 19.1147 165.345 19.4368 163.582 19.4368C161.427 19.4368 159.738 18.821 158.519 17.5895C157.301 16.3579 156.69 14.6495 156.69 12.4642C156.69 10.2789 157.294 8.57053 158.503 7.33895C159.712 6.10737 161.369 5.49158 163.47 5.49158C165.102 5.49158 166.388 5.78842 167.325 6.3821C168.262 6.97579 168.966 7.94842 169.436 9.3H173.645L173.543 8.80104C172.343 4.30104 168.994 2.04947 163.496 2.04947C161.171 2.04947 159.172 2.49474 157.502 3.3821C155.832 4.27263 154.556 5.49789 153.677 7.0642C152.794 8.63052 152.356 10.4305 152.356 12.4674C152.356 14.5042 152.797 16.361 153.677 17.9242C154.559 19.4905 155.829 20.7063 157.489 21.5779C159.149 22.4495 161.161 22.8821 163.525 22.8821C166.509 22.8821 168.898 22.2442 170.699 20.9653C172.5 19.6863 173.559 17.8642 173.878 15.4926H169.685L169.688 15.4895Z" fill="#001C44"/>
    <path d="M121.071 2.54525L115.106 11.1284L112.94 14.3495V22.38H117.105V14.3495L125.629 2.54525H121.071Z" fill="#001C44"/>
    <path d="M109.111 2.54525H104.442L109.719 9.87789C110.282 10.661 111.197 11.1284 112.172 11.1284H115.106L109.111 2.54525Z" fill="#001C44"/>
    <path d="M51.6722 2.54525H47.0312L37.7458 22.38H42.0511L44.1333 17.6842H49.8811C50.9334 17.6842 51.8898 17.0779 52.3248 16.1305L53.0796 14.4916H45.5119L49.3117 6.04736L53.0828 14.4916L54.4038 17.6874L56.5436 22.3832H60.9896L51.6754 2.54841L51.6722 2.54525Z" fill="#001C44"/>
    <path d="M21.6956 6.87789L21.3854 6.57157L18.8233 9.10105L19.1336 9.40737C20.4226 10.68 20.4226 12.7484 19.1336 14.021L14.1951 18.8968C12.9061 20.1695 10.811 20.1695 9.52202 18.8968L4.58349 14.021C3.29448 12.7484 3.29448 10.68 4.58349 9.40737L9.52202 4.53158C10.811 3.25894 12.9061 3.25894 14.1951 4.53158L14.4638 4.79684L16.8339 2.45684C16.8978 2.39368 16.965 2.33368 17.0322 2.27052L16.7571 1.99895C14.0575 -0.666316 9.66276 -0.666316 6.9632 1.99895L2.02467 6.87474C-0.67489 9.54 -0.67489 13.8789 2.02467 16.5442L6.9632 21.42C8.31298 22.7526 10.0882 23.4189 11.8601 23.4189C13.6321 23.4189 15.2378 22.8126 16.562 21.6032C16.6292 21.5432 16.6931 21.4832 16.7603 21.4168L19.1304 19.0768L21.702 16.5379C23.0102 15.2463 23.7299 13.5284 23.7299 11.7032C23.7299 9.87789 23.0102 8.15999 21.702 6.86842L21.6956 6.87789Z" fill="#3B3CDB"/>
    <path d="M31.5694 7.33578L26.6309 2.45999C23.9953 -0.142115 19.7445 -0.202114 17.0321 2.27368C16.965 2.33368 16.901 2.39367 16.8338 2.45999L14.4637 4.79999L11.8921 7.33894C9.19254 10.0042 9.19254 14.3432 11.8921 17.0084L14.4541 14.4789C13.1651 13.2063 13.1651 11.1379 14.4541 9.86526L19.3927 4.98947C20.6817 3.71684 22.7767 3.71684 24.0657 4.98947L29.0042 9.86526C29.6279 10.481 29.9734 11.3021 29.9734 12.1737C29.9734 13.0453 29.6311 13.8632 29.0042 14.4821L24.0657 19.3579C23.442 19.9737 22.6104 20.3147 21.7276 20.3147C20.8448 20.3147 20.0164 19.9768 19.3895 19.3579L19.1208 19.0926L16.7507 21.4326C16.6867 21.4958 16.6195 21.5558 16.5524 21.6189L16.8274 21.8905C18.1356 23.1821 19.8756 23.8926 21.7244 23.8926C23.5731 23.8926 25.3131 23.1821 26.6213 21.8905L31.5599 17.0147C32.8681 15.7231 33.5877 14.0053 33.5877 12.18C33.5877 10.3547 32.8681 8.63683 31.5599 7.34525L31.5694 7.33578Z" fill="#7676FF"/>
  </g>
  <defs>
    <clipPath id="clip0_1512_741">
      <rect width="174" height="24" fill="white"/>
    </clipPath>
  </defs>
</svg>